{
 "cells": [
  {
   "cell_type": "code",
   "execution_count": 1,
   "id": "d99ed4b6-6e1c-49fe-b208-c2cea47a3d7c",
   "metadata": {},
   "outputs": [
    {
     "name": "stdout",
     "output_type": "stream",
     "text": [
      "Defaulting to user installation because normal site-packages is not writeable\n",
      "Requirement already satisfied: twelvelabs in /home/kartik/.local/lib/python3.12/site-packages (0.2.8)\n",
      "Requirement already satisfied: pydantic>=2.4.2 in /home/kartik/.local/lib/python3.12/site-packages (from twelvelabs) (2.9.2)\n",
      "Requirement already satisfied: httpx>=0.25.2 in /home/kartik/.local/lib/python3.12/site-packages (from twelvelabs) (0.27.2)\n",
      "Requirement already satisfied: anyio in /home/kartik/anaconda3/lib/python3.12/site-packages (from httpx>=0.25.2->twelvelabs) (4.2.0)\n",
      "Requirement already satisfied: certifi in /home/kartik/anaconda3/lib/python3.12/site-packages (from httpx>=0.25.2->twelvelabs) (2024.6.2)\n",
      "Requirement already satisfied: httpcore==1.* in /home/kartik/.local/lib/python3.12/site-packages (from httpx>=0.25.2->twelvelabs) (1.0.6)\n",
      "Requirement already satisfied: idna in /home/kartik/anaconda3/lib/python3.12/site-packages (from httpx>=0.25.2->twelvelabs) (3.7)\n",
      "Requirement already satisfied: sniffio in /home/kartik/anaconda3/lib/python3.12/site-packages (from httpx>=0.25.2->twelvelabs) (1.3.0)\n",
      "Requirement already satisfied: h11<0.15,>=0.13 in /home/kartik/.local/lib/python3.12/site-packages (from httpcore==1.*->httpx>=0.25.2->twelvelabs) (0.14.0)\n",
      "Requirement already satisfied: annotated-types>=0.6.0 in /home/kartik/anaconda3/lib/python3.12/site-packages (from pydantic>=2.4.2->twelvelabs) (0.6.0)\n",
      "Requirement already satisfied: pydantic-core==2.23.4 in /home/kartik/.local/lib/python3.12/site-packages (from pydantic>=2.4.2->twelvelabs) (2.23.4)\n",
      "Requirement already satisfied: typing-extensions>=4.6.1 in /home/kartik/anaconda3/lib/python3.12/site-packages (from pydantic>=2.4.2->twelvelabs) (4.11.0)\n"
     ]
    }
   ],
   "source": [
    "!pip install twelvelabs"
   ]
  },
  {
   "cell_type": "code",
   "execution_count": 35,
   "id": "064be466-9cbc-499d-8df1-63fc66c1496e",
   "metadata": {},
   "outputs": [],
   "source": [
    "# Install the Twelve Labs SDK\n",
    "# !pip3 install twelvelabs\n",
    "# !pip install ffmpeg-python\n",
    "# !pip install pandas\n",
    "\n",
    "import os\n",
    "from twelvelabs import TwelveLabs\n",
    "from twelvelabs.models.task import Task\n",
    "import pandas as pd\n",
    "import ffmpeg\n",
    "import hashlib\n",
    "import re\n",
    "from pathlib import Path\n",
    "import csv\n",
    "import shutil\n",
    "from dotenv import load_dotenv\n",
    "\n",
    "\n",
    "load_dotenv()\n",
    "\n",
    "\n",
    "API_KEY = \"tlk_0QGAQCF0RSEGVT2GZTM1F1RJJ887\"\n",
    "# INDEX_NAME = \"security\"\n",
    "# VIDEO_PATH = \"Sequence_08.mp4\"  # Path to the video file\n",
    "# VIDEO_PATH = \"NA.mp4\"  # Path to the video file\n",
    "\n",
    "# Define the search query\n",
    "# QUERY_TEXT = \"a man jumping the fence only\"\n",
    "\n",
    "def generate_data(VIDEO_PATH, QUERY_TEXT,INDEX_NAME, VIDEO_UPLOAD = 0, DELETE = True, API_KEY=API_KEY, TOPK = 5):\n",
    "    if DELETE:  \n",
    "        if os.path.exists(\"output\"):\n",
    "            shutil.rmtree(\"output\")\n",
    "            print(f\"'{\"output\"}' has been removed.\")\n",
    "        else:\n",
    "            print(f\"'{\"output\"}' does not exist.\")\n",
    "        os.mkdir(\"output\")\n",
    "    \n",
    "    # Initialize the client with your API key\n",
    "    client = TwelveLabs(api_key=API_KEY)\n",
    "    \n",
    "    # index access\n",
    "    \n",
    "    # Step 1: Search for the existing index by name\n",
    "    found_index = None\n",
    "    try:\n",
    "        search_results = client.index.list()  # Fetch the list of indexes\n",
    "    except Exception as e:\n",
    "        print(f\"Error retrieving indexes: {e}\")\n",
    "        search_results = []  # Ensure search_results is defined, even if retrieval fails\n",
    "    \n",
    "    for idx in search_results.root:  # Assuming search_results contains the list of indexes\n",
    "        if idx.name == INDEX_NAME:\n",
    "            found_index = idx\n",
    "            break\n",
    "    \n",
    "    # Step 2: If the index exists, store its ID\n",
    "    if found_index:\n",
    "        print(f\"Index already exists: id={found_index.id}, name={found_index.name}\")\n",
    "        index_id = found_index.id\n",
    "    \n",
    "    # Step 3: If the index does not exist, create a new one\n",
    "    else:\n",
    "        print(f\"Index with name '{INDEX_NAME}' not found. Creating a new index...\")\n",
    "    \n",
    "        try:\n",
    "            index = client.index.create(\n",
    "                name=INDEX_NAME,  # Use the desired name for the index\n",
    "                models=[\n",
    "                    {\n",
    "                        \"name\": \"marengo2.7\",  # Engine for video understanding\n",
    "                        \"options\": [\"visual\", \"audio\"],  # Options for visual, conversation, and text\n",
    "                    }\n",
    "                ],\n",
    "                addons=[\"thumbnail\"],  # Optional thumbnail addon\n",
    "            )\n",
    "            print(f\"Created new index: id={index.id} name={index.name}\")\n",
    "            index_id = index.id  # Store the new index ID\n",
    "    \n",
    "        except Exception as e:\n",
    "            print(f\"Error during index creation: {e}\")\n",
    "    \n",
    "    # Now you have the index ID stored in `index_id`, whether it was found or created\n",
    "    print(f\"Using index ID: {index_id}\")\n",
    "    \n",
    "    \n",
    "    # Step 2: Upload the video\n",
    "    \n",
    "    if VIDEO_UPLOAD:\n",
    "        try:\n",
    "            print(f\"Uploading {VIDEO_PATH}\") \n",
    "            task = client.task.create(index_id=index_id, file=VIDEO_PATH, language=\"en\")  # Upload the video\n",
    "            print(f\"Created task: id={task.id}\")\n",
    "            \n",
    "            # Monitor the upload and indexing process\n",
    "            def on_task_update(task: Task):\n",
    "                print(f\"  Status={task.status}\")\n",
    "        \n",
    "            task.wait_for_done(sleep_interval=50, callback=on_task_update)  # Wait until the task is done\n",
    "            \n",
    "            if task.status != \"ready\":\n",
    "                raise RuntimeError(f\"Indexing failed with status {task.status}\")\n",
    "            \n",
    "            print(f\"Uploaded {VIDEO_PATH}. The unique identifier of your video is {task.video_id}.\")\n",
    "            \n",
    "        except Exception as e:\n",
    "            print(f\"Error during video upload or processing: {e}\")\n",
    "    \n",
    "    # HELPER\n",
    "    \n",
    "    def normalize_query(query):\n",
    "        # Remove special characters and convert text to lowercase\n",
    "        return re.sub(r'\\W+', '', query.lower())\n",
    "    \n",
    "    def get_folder_name_from_query(query, folder_base=\"\"):\n",
    "        # Normalize the query\n",
    "        normalized_query = normalize_query(query)\n",
    "        \n",
    "        # Create a hash from the normalized query\n",
    "        hash_object = hashlib.md5(normalized_query.encode())  # Using MD5 hash (you can also use SHA256)\n",
    "        folder_hash = hash_object.hexdigest()[:8]  # Using first 8 characters of the hash\n",
    "    \n",
    "        # Construct folder path using the folder base and hash\n",
    "        folder_path = Path(folder_base) / folder_hash\n",
    "        return folder_path, folder_hash\n",
    "    \n",
    "    def map_query_to_csv(query, folder_path, csv_file=\"output/query_mapping.csv\"):\n",
    "        # Write the query and folder path to the CSV file\n",
    "        with open(csv_file, mode='a', newline='') as file:\n",
    "            writer = csv.writer(file)\n",
    "            writer.writerow([query, folder_path])\n",
    "        print(\"done\")\n",
    "    \n",
    "    FOLDER_NAME, FOLDER_HASH = get_folder_name_from_query(QUERY_TEXT)\n",
    "    map_query_to_csv(QUERY_TEXT, FOLDER_NAME, csv_file=\"output/query_mapping.csv\")\n",
    "    if not os.path.exists(Path(\"output\") / FOLDER_NAME):\n",
    "        os.makedirs(Path(\"output\") / FOLDER_NAME)\n",
    "    # List to hold all results\n",
    "    results = []\n",
    "    \n",
    "    try:\n",
    "        # Step 1: Perform the search\n",
    "        search_results = client.search.query(\n",
    "        index_id=index_id, \n",
    "        query_text=QUERY_TEXT,\n",
    "        options=[\"visual\", \"audio\"])\n",
    "    \n",
    "        for clip in search_results.data:\n",
    "            print(f\"Video ID: {clip.video_id}, Confidence: {clip.confidence}, Score: {clip.score}\")\n",
    "        \n",
    "        idx = 0\n",
    "        # Step 2: Process each page of results\n",
    "        def collect_results(page, idx):\n",
    "            i = 0\n",
    "            for clip in page:\n",
    "                # Append each result to the list as a dictionary\n",
    "                results.append({\n",
    "                    'index_clip': str(FOLDER_NAME) + \"_\" + str(idx)+ \"_\" + str(i),\n",
    "                    'video_id': clip.video_id,\n",
    "                    'score': clip.score,\n",
    "                    'start': clip.start,\n",
    "                    'end': clip.end,\n",
    "                    'confidence': clip.confidence,\n",
    "                    'thumbnail_url': clip.thumbnail_url\n",
    "                })\n",
    "                i += 1\n",
    "    \n",
    "        # Step 3: Collect the results from the first page\n",
    "        collect_results(search_results.data, idx)\n",
    "        idx += 1\n",
    "        \n",
    "        # Step 4: Handle pagination\n",
    "        while True:\n",
    "            try:\n",
    "                collect_results(next(search_results), idx)  # Get the next page of results\n",
    "                idx += 1\n",
    "            except StopIteration:\n",
    "                break  # Exit loop when there are no more pages\n",
    "    \n",
    "        # Step 5: Convert the results to a pandas DataFrame\n",
    "        df = pd.DataFrame(results)\n",
    "        \n",
    "        # Step 6: Save the DataFrame to a CSV file\n",
    "        df.to_csv(f\"output/{FOLDER_NAME}/search_results.csv\", index=False)\n",
    "        print(f\"Results have been saved to output/{FOLDER_NAME}/search_results.csv\")\n",
    "    \n",
    "    except Exception as e:\n",
    "        print(f\"Error during search: {e}\")\n",
    "    \n",
    "    \n",
    "    \n",
    "    # Load the CSV file\n",
    "    csv_file = f\"output/{FOLDER_NAME}/search_results.csv\"  # Replace with the path to your CSV file\n",
    "    data = pd.read_csv(csv_file)\n",
    "    \n",
    "    # # Define the input video file path (constant for all clips)\n",
    "    # input_video = VIDEO_PATH # Replace with your video file path\n",
    "    \n",
    "    # # Loop through the CSV rows and extract clips\n",
    "    # for index, row in data.iterrows():\n",
    "    #     index_clip = row['index_clip']  # Use index_clip from the CSV\n",
    "    #     start_time = row['start']\n",
    "    #     end_time = row['end']\n",
    "        \n",
    "    #     # Dynamic output file name using index_clip from the CSV\n",
    "    #     output_clip = f\"output/{FOLDER_NAME}/{index_clip}.mp4\"\n",
    "    \n",
    "    #     # Use FFmpeg to extract the subclip\n",
    "    #     try:\n",
    "    #         ffmpeg.input(VIDEO_PATH, ss=start_time, t=end_time - start_time).output(output_clip).run()\n",
    "    #         print(f\"Clip saved to {output_clip}\")\n",
    "    #     except ffmpeg.Error as e:\n",
    "    #         print(f\"Error processing clip {index}: {e}\")\n",
    "\n",
    "    return FOLDER_HASHdfr\n",
    "# generate_data(API_KEY, INDEX_NAME, VIDEO_PATH, QUERY_TEXT, 1, 0, 5)"
   ]
  },
  {
   "cell_type": "code",
   "execution_count": 41,
   "id": "a3b81d48-cf71-4b78-9044-bdcbeada8b56",
   "metadata": {},
   "outputs": [
    {
     "name": "stdout",
     "output_type": "stream",
     "text": [
      "'output' has been removed.\n",
      "Index already exists: id=6795b89781c61d7813698eef, name=nsec3\n",
      "Using index ID: 6795b89781c61d7813698eef\n",
      "done\n",
      "Video ID: 6795b915f21362a14566e310, Confidence: high, Score: 84.2\n",
      "Video ID: 6795b915f21362a14566e310, Confidence: high, Score: 83.76\n",
      "Video ID: 6795b915f21362a14566e310, Confidence: medium, Score: 80.39\n",
      "Video ID: 6795b94bf21362a14566e311, Confidence: medium, Score: 78.34\n",
      "Video ID: 6795b8a5f21362a14566e30f, Confidence: medium, Score: 78.33\n",
      "Video ID: 6795b94bf21362a14566e311, Confidence: medium, Score: 76.12\n",
      "Video ID: 6795b8a5f21362a14566e30f, Confidence: medium, Score: 74.44\n",
      "Video ID: 6795b8dfcf67133816b2e54e, Confidence: medium, Score: 74.09\n",
      "Video ID: 6795b8dfcf67133816b2e54e, Confidence: low, Score: 71.98\n",
      "Results have been saved to output/79f4b420/search_results.csv\n"
     ]
    },
    {
     "ename": "NameError",
     "evalue": "name 'FOLDER_HASHdfr' is not defined",
     "output_type": "error",
     "traceback": [
      "\u001b[0;31m---------------------------------------------------------------------------\u001b[0m",
      "\u001b[0;31mNameError\u001b[0m                                 Traceback (most recent call last)",
      "Cell \u001b[0;32mIn[41], line 1\u001b[0m\n\u001b[0;32m----> 1\u001b[0m generate_data(API_KEY \u001b[38;5;241m=\u001b[39m API_KEY, INDEX_NAME \u001b[38;5;241m=\u001b[39m \u001b[38;5;124m\"\u001b[39m\u001b[38;5;124mnsec3\u001b[39m\u001b[38;5;124m\"\u001b[39m, VIDEO_PATH \u001b[38;5;241m=\u001b[39m \u001b[38;5;124m\"\u001b[39m\u001b[38;5;124m./manf.mp4\u001b[39m\u001b[38;5;124m\"\u001b[39m, QUERY_TEXT \u001b[38;5;241m=\u001b[39m \u001b[38;5;124m\"\u001b[39m\u001b[38;5;124ma boy in green shirt drinking water from a bottle\u001b[39m\u001b[38;5;124m\"\u001b[39m, DELETE \u001b[38;5;241m=\u001b[39m \u001b[38;5;241m1\u001b[39m, VIDEO_UPLOAD \u001b[38;5;241m=\u001b[39m \u001b[38;5;241m0\u001b[39m, TOPK \u001b[38;5;241m=\u001b[39m \u001b[38;5;241m5\u001b[39m)\n",
      "Cell \u001b[0;32mIn[35], line 215\u001b[0m, in \u001b[0;36mgenerate_data\u001b[0;34m(VIDEO_PATH, QUERY_TEXT, INDEX_NAME, VIDEO_UPLOAD, DELETE, API_KEY, TOPK)\u001b[0m\n\u001b[1;32m    194\u001b[0m data \u001b[38;5;241m=\u001b[39m pd\u001b[38;5;241m.\u001b[39mread_csv(csv_file)\n\u001b[1;32m    196\u001b[0m \u001b[38;5;66;03m# # Define the input video file path (constant for all clips)\u001b[39;00m\n\u001b[1;32m    197\u001b[0m \u001b[38;5;66;03m# input_video = VIDEO_PATH # Replace with your video file path\u001b[39;00m\n\u001b[1;32m    198\u001b[0m \n\u001b[0;32m   (...)\u001b[0m\n\u001b[1;32m    212\u001b[0m \u001b[38;5;66;03m#     except ffmpeg.Error as e:\u001b[39;00m\n\u001b[1;32m    213\u001b[0m \u001b[38;5;66;03m#         print(f\"Error processing clip {index}: {e}\")\u001b[39;00m\n\u001b[0;32m--> 215\u001b[0m \u001b[38;5;28;01mreturn\u001b[39;00m FOLDER_HASHdfr\n",
      "\u001b[0;31mNameError\u001b[0m: name 'FOLDER_HASHdfr' is not defined"
     ]
    }
   ],
   "source": [
    "generate_data(API_KEY = API_KEY, INDEX_NAME = \"nsec3\", VIDEO_PATH = \"./manf.mp4\", QUERY_TEXT = \"a boy in green shirt drinking water from a bottle\", DELETE = 1, VIDEO_UPLOAD = 0, TOPK = 5)"
   ]
  },
  {
   "cell_type": "code",
   "execution_count": 9,
   "id": "b26bb0c0-1ddd-4640-a389-3c5c42359735",
   "metadata": {},
   "outputs": [
    {
     "name": "stdout",
     "output_type": "stream",
     "text": [
      "True\n"
     ]
    }
   ],
   "source": [
    "# Load the CSV fil\n",
    "csv_file = f\"output/0eae8ceb/search_results.csv\"  # Replace with the path to your CSV file\n",
    "data = pd.read_csv(csv_file)\n",
    "data['confidence'] = pd.to_numeric(data['score'], errors='coerce')\n",
    "\n",
    "# Filter out NaN values if necessary\n",
    "# data = data.dropna(subset=['confidence'])\n",
    "\n",
    "\n",
    "if (data['score'] > 75).any():\n",
    "    print(True)\n",
    "    # return True\n",
    "else:\n",
    "    print(False)\n",
    "    # return False"
   ]
  },
  {
   "cell_type": "code",
   "execution_count": 8,
   "id": "b69b09c0-b4e1-4e57-8250-eea734d6535f",
   "metadata": {},
   "outputs": [
    {
     "data": {
      "text/html": [
       "<div>\n",
       "<style scoped>\n",
       "    .dataframe tbody tr th:only-of-type {\n",
       "        vertical-align: middle;\n",
       "    }\n",
       "\n",
       "    .dataframe tbody tr th {\n",
       "        vertical-align: top;\n",
       "    }\n",
       "\n",
       "    .dataframe thead th {\n",
       "        text-align: right;\n",
       "    }\n",
       "</style>\n",
       "<table border=\"1\" class=\"dataframe\">\n",
       "  <thead>\n",
       "    <tr style=\"text-align: right;\">\n",
       "      <th></th>\n",
       "      <th>index_clip</th>\n",
       "      <th>video_id</th>\n",
       "      <th>score</th>\n",
       "      <th>start</th>\n",
       "      <th>end</th>\n",
       "      <th>confidence</th>\n",
       "      <th>thumbnail_url</th>\n",
       "    </tr>\n",
       "  </thead>\n",
       "  <tbody>\n",
       "    <tr>\n",
       "      <th>0</th>\n",
       "      <td>0eae8ceb_0_0</td>\n",
       "      <td>67956c68cf67133816b2e527</td>\n",
       "      <td>84.54</td>\n",
       "      <td>0.0000</td>\n",
       "      <td>19.6460</td>\n",
       "      <td>NaN</td>\n",
       "      <td>https://project-one-thumbnail.s3.us-west-2.ama...</td>\n",
       "    </tr>\n",
       "    <tr>\n",
       "      <th>1</th>\n",
       "      <td>0eae8ceb_0_1</td>\n",
       "      <td>67956c30f21362a14566e2e6</td>\n",
       "      <td>84.32</td>\n",
       "      <td>0.0000</td>\n",
       "      <td>29.0000</td>\n",
       "      <td>NaN</td>\n",
       "      <td>https://project-one-thumbnail.s3.us-west-2.ama...</td>\n",
       "    </tr>\n",
       "    <tr>\n",
       "      <th>2</th>\n",
       "      <td>0eae8ceb_0_2</td>\n",
       "      <td>67956cb6f21362a14566e2e7</td>\n",
       "      <td>83.73</td>\n",
       "      <td>0.0000</td>\n",
       "      <td>15.7185</td>\n",
       "      <td>NaN</td>\n",
       "      <td>https://project-one-thumbnail.s3.us-west-2.ama...</td>\n",
       "    </tr>\n",
       "    <tr>\n",
       "      <th>3</th>\n",
       "      <td>0eae8ceb_0_3</td>\n",
       "      <td>67956c68cf67133816b2e527</td>\n",
       "      <td>83.69</td>\n",
       "      <td>19.6460</td>\n",
       "      <td>29.0000</td>\n",
       "      <td>NaN</td>\n",
       "      <td>https://project-one-thumbnail.s3.us-west-2.ama...</td>\n",
       "    </tr>\n",
       "    <tr>\n",
       "      <th>4</th>\n",
       "      <td>0eae8ceb_0_4</td>\n",
       "      <td>67956ceff21362a14566e2e8</td>\n",
       "      <td>83.56</td>\n",
       "      <td>0.0000</td>\n",
       "      <td>9.8230</td>\n",
       "      <td>NaN</td>\n",
       "      <td>https://project-one-thumbnail.s3.us-west-2.ama...</td>\n",
       "    </tr>\n",
       "    <tr>\n",
       "      <th>5</th>\n",
       "      <td>0eae8ceb_0_5</td>\n",
       "      <td>67956ceff21362a14566e2e8</td>\n",
       "      <td>83.44</td>\n",
       "      <td>19.6460</td>\n",
       "      <td>29.0000</td>\n",
       "      <td>NaN</td>\n",
       "      <td>https://project-one-thumbnail.s3.us-west-2.ama...</td>\n",
       "    </tr>\n",
       "    <tr>\n",
       "      <th>6</th>\n",
       "      <td>0eae8ceb_0_6</td>\n",
       "      <td>67956cb6f21362a14566e2e7</td>\n",
       "      <td>83.40</td>\n",
       "      <td>15.7185</td>\n",
       "      <td>31.0000</td>\n",
       "      <td>NaN</td>\n",
       "      <td>https://project-one-thumbnail.s3.us-west-2.ama...</td>\n",
       "    </tr>\n",
       "    <tr>\n",
       "      <th>7</th>\n",
       "      <td>0eae8ceb_0_7</td>\n",
       "      <td>67956ceff21362a14566e2e8</td>\n",
       "      <td>83.20</td>\n",
       "      <td>9.8230</td>\n",
       "      <td>19.6460</td>\n",
       "      <td>NaN</td>\n",
       "      <td>https://project-one-thumbnail.s3.us-west-2.ama...</td>\n",
       "    </tr>\n",
       "  </tbody>\n",
       "</table>\n",
       "</div>"
      ],
      "text/plain": [
       "     index_clip                  video_id  score    start      end  \\\n",
       "0  0eae8ceb_0_0  67956c68cf67133816b2e527  84.54   0.0000  19.6460   \n",
       "1  0eae8ceb_0_1  67956c30f21362a14566e2e6  84.32   0.0000  29.0000   \n",
       "2  0eae8ceb_0_2  67956cb6f21362a14566e2e7  83.73   0.0000  15.7185   \n",
       "3  0eae8ceb_0_3  67956c68cf67133816b2e527  83.69  19.6460  29.0000   \n",
       "4  0eae8ceb_0_4  67956ceff21362a14566e2e8  83.56   0.0000   9.8230   \n",
       "5  0eae8ceb_0_5  67956ceff21362a14566e2e8  83.44  19.6460  29.0000   \n",
       "6  0eae8ceb_0_6  67956cb6f21362a14566e2e7  83.40  15.7185  31.0000   \n",
       "7  0eae8ceb_0_7  67956ceff21362a14566e2e8  83.20   9.8230  19.6460   \n",
       "\n",
       "   confidence                                      thumbnail_url  \n",
       "0         NaN  https://project-one-thumbnail.s3.us-west-2.ama...  \n",
       "1         NaN  https://project-one-thumbnail.s3.us-west-2.ama...  \n",
       "2         NaN  https://project-one-thumbnail.s3.us-west-2.ama...  \n",
       "3         NaN  https://project-one-thumbnail.s3.us-west-2.ama...  \n",
       "4         NaN  https://project-one-thumbnail.s3.us-west-2.ama...  \n",
       "5         NaN  https://project-one-thumbnail.s3.us-west-2.ama...  \n",
       "6         NaN  https://project-one-thumbnail.s3.us-west-2.ama...  \n",
       "7         NaN  https://project-one-thumbnail.s3.us-west-2.ama...  "
      ]
     },
     "execution_count": 8,
     "metadata": {},
     "output_type": "execute_result"
    }
   ],
   "source": [
    "data"
   ]
  },
  {
   "cell_type": "code",
   "execution_count": 14,
   "id": "f31e5c28-999e-44e8-9c44-295390d545ed",
   "metadata": {
    "scrolled": true
   },
   "outputs": [
    {
     "name": "stdout",
     "output_type": "stream",
     "text": [
      "'output' has been removed.\n",
      "Index already exists: id=67951381246c42594d6919c7, name=security1\n",
      "Using index ID: 67951381246c42594d6919c7\n",
      "done\n",
      "Results have been saved to output/dd0a04c2/search_results.csv\n"
     ]
    },
    {
     "name": "stderr",
     "output_type": "stream",
     "text": [
      "ffmpeg version 4.4.2-0ubuntu0.22.04.1 Copyright (c) 2000-2021 the FFmpeg developers\n",
      "  built with gcc 11 (Ubuntu 11.2.0-19ubuntu1)\n",
      "  configuration: --prefix=/usr --extra-version=0ubuntu0.22.04.1 --toolchain=hardened --libdir=/usr/lib/x86_64-linux-gnu --incdir=/usr/include/x86_64-linux-gnu --arch=amd64 --enable-gpl --disable-stripping --enable-gnutls --enable-ladspa --enable-libaom --enable-libass --enable-libbluray --enable-libbs2b --enable-libcaca --enable-libcdio --enable-libcodec2 --enable-libdav1d --enable-libflite --enable-libfontconfig --enable-libfreetype --enable-libfribidi --enable-libgme --enable-libgsm --enable-libjack --enable-libmp3lame --enable-libmysofa --enable-libopenjpeg --enable-libopenmpt --enable-libopus --enable-libpulse --enable-librabbitmq --enable-librubberband --enable-libshine --enable-libsnappy --enable-libsoxr --enable-libspeex --enable-libsrt --enable-libssh --enable-libtheora --enable-libtwolame --enable-libvidstab --enable-libvorbis --enable-libvpx --enable-libwebp --enable-libx265 --enable-libxml2 --enable-libxvid --enable-libzimg --enable-libzmq --enable-libzvbi --enable-lv2 --enable-omx --enable-openal --enable-opencl --enable-opengl --enable-sdl2 --enable-pocketsphinx --enable-librsvg --enable-libmfx --enable-libdc1394 --enable-libdrm --enable-libiec61883 --enable-chromaprint --enable-frei0r --enable-libx264 --enable-shared\n",
      "  libavutil      56. 70.100 / 56. 70.100\n",
      "  libavcodec     58.134.100 / 58.134.100\n",
      "  libavformat    58. 76.100 / 58. 76.100\n",
      "  libavdevice    58. 13.100 / 58. 13.100\n",
      "  libavfilter     7.110.100 /  7.110.100\n",
      "  libswscale      5.  9.100 /  5.  9.100\n",
      "  libswresample   3.  9.100 /  3.  9.100\n",
      "  libpostproc    55.  9.100 / 55.  9.100\n",
      "Input #0, mov,mp4,m4a,3gp,3g2,mj2, from './manf.mp4':\n",
      "  Metadata:\n",
      "    minor_version   : 512\n",
      "    major_brand     : isom\n",
      "    compatible_brands: isomiso6iso2avc1mp41\n",
      "    Hw              : 1\n",
      "    LvMetaInfo      : {\"data\":{\"appVersion\":\"15.4.0\",\"ch1\":\"Direct\",\"ch2\":\"enter_url\",\"editType\":\"edit\",\"exportType\":\"export\",\"original_edittype\":\"edit\",\"os\":\"web\",\"product\":\"vicutweb\",\"videoId\":\"gIG4wJHsAj2HePzP5uJKRDn7ITA7DnrQWJLuImo\"},\"source_type\":\"vicutweb\"}\n",
      "    bitrate         : 0\n",
      "    maxrate         : 0\n",
      "    te_is_reencode  : 1\n",
      "    encoder         : Lavf58.45.100\n",
      "  Duration: 00:01:31.49, start: 0.000000, bitrate: 6699 kb/s\n",
      "  Stream #0:0(und): Video: h264 (Main) (avc1 / 0x31637661), yuv420p(tv, bt709), 1920x1080 [SAR 1:1 DAR 16:9], 6688 kb/s, 59.97 fps, 60 tbr, 1000k tbn, 120 tbc (default)\n",
      "    Metadata:\n",
      "      handler_name    : VideoHandler\n",
      "      vendor_id       : [0][0][0][0]\n",
      "  Stream #0:1(und): Audio: aac (LC) (mp4a / 0x6134706D), 44100 Hz, stereo, fltp, 2 kb/s (default)\n",
      "    Metadata:\n",
      "      handler_name    : SoundHandler\n",
      "      vendor_id       : [0][0][0][0]\n",
      "Stream mapping:\n",
      "  Stream #0:0 -> #0:0 (h264 (native) -> h264 (libx264))\n",
      "  Stream #0:1 -> #0:1 (aac (native) -> aac (native))\n",
      "Press [q] to stop, [?] for help\n",
      "[libx264 @ 0x5b75f8423440] using SAR=1/1\n",
      "[libx264 @ 0x5b75f8423440] using cpu capabilities: MMX2 SSE2Fast SSSE3 SSE4.2 AVX FMA3 BMI2 AVX2\n",
      "[libx264 @ 0x5b75f8423440] profile High, level 4.2, 4:2:0, 8-bit\n",
      "[libx264 @ 0x5b75f8423440] 264 - core 163 r3060 5db6aa6 - H.264/MPEG-4 AVC codec - Copyleft 2003-2021 - http://www.videolan.org/x264.html - options: cabac=1 ref=3 deblock=1:0:0 analyse=0x3:0x113 me=hex subme=7 psy=1 psy_rd=1.00:0.00 mixed_ref=1 me_range=16 chroma_me=1 trellis=1 8x8dct=1 cqm=0 deadzone=21,11 fast_pskip=1 chroma_qp_offset=-2 threads=24 lookahead_threads=4 sliced_threads=0 nr=0 decimate=1 interlaced=0 bluray_compat=0 constrained_intra=0 bframes=3 b_pyramid=2 b_adapt=1 b_bias=0 direct=1 weightb=1 open_gop=0 weightp=2 keyint=250 keyint_min=25 scenecut=40 intra_refresh=0 rc_lookahead=40 rc=crf mbtree=1 crf=23.0 qcomp=0.60 qpmin=0 qpmax=69 qpstep=4 ip_ratio=1.40 aq=1:1.00\n",
      "Output #0, mp4, to 'output/dd0a04c2/dd0a04c2_0_0.mp4':\n",
      "  Metadata:\n",
      "    minor_version   : 512\n",
      "    major_brand     : isom\n",
      "    compatible_brands: isomiso6iso2avc1mp41\n",
      "    Hw              : 1\n",
      "    LvMetaInfo      : {\"data\":{\"appVersion\":\"15.4.0\",\"ch1\":\"Direct\",\"ch2\":\"enter_url\",\"editType\":\"edit\",\"exportType\":\"export\",\"original_edittype\":\"edit\",\"os\":\"web\",\"product\":\"vicutweb\",\"videoId\":\"gIG4wJHsAj2HePzP5uJKRDn7ITA7DnrQWJLuImo\"},\"source_type\":\"vicutweb\"}\n",
      "    bitrate         : 0\n",
      "    maxrate         : 0\n",
      "    te_is_reencode  : 1\n",
      "    encoder         : Lavf58.76.100\n",
      "  Stream #0:0(und): Video: h264 (avc1 / 0x31637661), yuv420p(tv, bt709, progressive), 1920x1080 [SAR 1:1 DAR 16:9], q=2-31, 60 fps, 15360 tbn (default)\n",
      "    Metadata:\n",
      "      handler_name    : VideoHandler\n",
      "      vendor_id       : [0][0][0][0]\n",
      "      encoder         : Lavc58.134.100 libx264\n",
      "    Side data:\n",
      "      cpb: bitrate max/min/avg: 0/0/0 buffer size: 0 vbv_delay: N/A\n",
      "  Stream #0:1(und): Audio: aac (LC) (mp4a / 0x6134706D), 44100 Hz, stereo, fltp, 128 kb/s (default)\n",
      "    Metadata:\n",
      "      handler_name    : SoundHandler\n",
      "      vendor_id       : [0][0][0][0]\n",
      "      encoder         : Lavc58.134.100 aac\n",
      "frame=  476 fps=201 q=-1.0 Lsize=    1168kB time=00:00:07.89 bitrate=1211.6kbits/s dup=1 drop=0 speed=3.34x    \n",
      "video:1151kB audio:2kB subtitle:0kB other streams:0kB global headers:0kB muxing overhead: 1.227330%\n",
      "[libx264 @ 0x5b75f8423440] frame I:2     Avg QP:20.92  size:132189\n",
      "[libx264 @ 0x5b75f8423440] frame P:120   Avg QP:21.92  size:  6839\n",
      "[libx264 @ 0x5b75f8423440] frame B:354   Avg QP:30.53  size:   264\n",
      "[libx264 @ 0x5b75f8423440] consecutive B-frames:  0.4%  0.8%  1.3% 97.5%\n",
      "[libx264 @ 0x5b75f8423440] mb I  I16..4: 12.8% 68.3% 18.9%\n",
      "[libx264 @ 0x5b75f8423440] mb P  I16..4:  0.4%  1.1%  0.2%  P16..4:  8.8%  2.6%  1.4%  0.0%  0.0%    skip:85.5%\n",
      "[libx264 @ 0x5b75f8423440] mb B  I16..4:  0.0%  0.0%  0.0%  B16..8:  3.6%  0.0%  0.0%  direct: 0.0%  skip:96.4%  L0:41.3% L1:58.4% BI: 0.3%\n",
      "[libx264 @ 0x5b75f8423440] 8x8 transform intra:65.9% inter:72.0%\n",
      "[libx264 @ 0x5b75f8423440] coded y,uvDC,uvAC intra: 68.6% 49.2% 13.8% inter: 1.3% 1.3% 0.0%\n",
      "[libx264 @ 0x5b75f8423440] i16 v,h,dc,p: 53% 26% 10% 12%\n",
      "[libx264 @ 0x5b75f8423440] i8 v,h,dc,ddl,ddr,vr,hd,vl,hu: 32% 19% 14%  3%  6%  6%  7%  5%  7%\n",
      "[libx264 @ 0x5b75f8423440] i4 v,h,dc,ddl,ddr,vr,hd,vl,hu: 37% 26% 10%  3%  6%  5%  5%  4%  4%\n",
      "[libx264 @ 0x5b75f8423440] i8c dc,h,v,p: 50% 21% 22%  7%\n",
      "[libx264 @ 0x5b75f8423440] Weighted P-Frames: Y:0.0% UV:0.0%\n",
      "[libx264 @ 0x5b75f8423440] ref P L0: 71.8% 13.0% 10.9%  4.3%\n",
      "[libx264 @ 0x5b75f8423440] ref B L0: 86.3% 13.2%  0.5%\n",
      "[libx264 @ 0x5b75f8423440] ref B L1: 97.5%  2.5%\n",
      "[libx264 @ 0x5b75f8423440] kb/s:1188.31\n",
      "[aac @ 0x5b75f844e200] Qavg: 65536.000\n",
      "ffmpeg version 4.4.2-0ubuntu0.22.04.1 Copyright (c) 2000-2021 the FFmpeg developers\n",
      "  built with gcc 11 (Ubuntu 11.2.0-19ubuntu1)\n",
      "  configuration: --prefix=/usr --extra-version=0ubuntu0.22.04.1 --toolchain=hardened --libdir=/usr/lib/x86_64-linux-gnu --incdir=/usr/include/x86_64-linux-gnu --arch=amd64 --enable-gpl --disable-stripping --enable-gnutls --enable-ladspa --enable-libaom --enable-libass --enable-libbluray --enable-libbs2b --enable-libcaca --enable-libcdio --enable-libcodec2 --enable-libdav1d --enable-libflite --enable-libfontconfig --enable-libfreetype --enable-libfribidi --enable-libgme --enable-libgsm --enable-libjack --enable-libmp3lame --enable-libmysofa --enable-libopenjpeg --enable-libopenmpt --enable-libopus --enable-libpulse --enable-librabbitmq --enable-librubberband --enable-libshine --enable-libsnappy --enable-libsoxr --enable-libspeex --enable-libsrt --enable-libssh --enable-libtheora --enable-libtwolame --enable-libvidstab --enable-libvorbis --enable-libvpx --enable-libwebp --enable-libx265 --enable-libxml2 --enable-libxvid --enable-libzimg --enable-libzmq --enable-libzvbi --enable-lv2 --enable-omx --enable-openal --enable-opencl --enable-opengl --enable-sdl2 --enable-pocketsphinx --enable-librsvg --enable-libmfx --enable-libdc1394 --enable-libdrm --enable-libiec61883 --enable-chromaprint --enable-frei0r --enable-libx264 --enable-shared\n",
      "  libavutil      56. 70.100 / 56. 70.100\n",
      "  libavcodec     58.134.100 / 58.134.100\n",
      "  libavformat    58. 76.100 / 58. 76.100\n",
      "  libavdevice    58. 13.100 / 58. 13.100\n",
      "  libavfilter     7.110.100 /  7.110.100\n",
      "  libswscale      5.  9.100 /  5.  9.100\n",
      "  libswresample   3.  9.100 /  3.  9.100\n",
      "  libpostproc    55.  9.100 / 55.  9.100\n",
      "Input #0, mov,mp4,m4a,3gp,3g2,mj2, from './manf.mp4':\n",
      "  Metadata:\n",
      "    minor_version   : 512\n",
      "    major_brand     : isom\n",
      "    compatible_brands: isomiso6iso2avc1mp41\n",
      "    Hw              : 1\n",
      "    LvMetaInfo      : {\"data\":{\"appVersion\":\"15.4.0\",\"ch1\":\"Direct\",\"ch2\":\"enter_url\",\"editType\":\"edit\",\"exportType\":\"export\",\"original_edittype\":\"edit\",\"os\":\"web\",\"product\":\"vicutweb\",\"videoId\":\"gIG4wJHsAj2HePzP5uJKRDn7ITA7DnrQWJLuImo\"},\"source_type\":\"vicutweb\"}\n",
      "    bitrate         : 0\n",
      "    maxrate         : 0\n",
      "    te_is_reencode  : 1\n",
      "    encoder         : Lavf58.45.100\n",
      "  Duration: 00:01:31.49, start: 0.000000, bitrate: 6699 kb/s\n",
      "  Stream #0:0(und): Video: h264 (Main) (avc1 / 0x31637661), yuv420p(tv, bt709), 1920x1080 [SAR 1:1 DAR 16:9], 6688 kb/s, 59.97 fps, 60 tbr, 1000k tbn, 120 tbc (default)\n",
      "    Metadata:\n",
      "      handler_name    : VideoHandler\n",
      "      vendor_id       : [0][0][0][0]\n",
      "  Stream #0:1(und): Audio: aac (LC) (mp4a / 0x6134706D), 44100 Hz, stereo, fltp, 2 kb/s (default)\n",
      "    Metadata:\n",
      "      handler_name    : SoundHandler\n",
      "      vendor_id       : [0][0][0][0]\n",
      "Stream mapping:\n",
      "  Stream #0:0 -> #0:0 (h264 (native) -> h264 (libx264))\n",
      "  Stream #0:1 -> #0:1 (aac (native) -> aac (native))\n",
      "Press [q] to stop, [?] for help\n"
     ]
    },
    {
     "name": "stdout",
     "output_type": "stream",
     "text": [
      "Clip saved to output/dd0a04c2/dd0a04c2_0_0.mp4\n"
     ]
    },
    {
     "name": "stderr",
     "output_type": "stream",
     "text": [
      "[libx264 @ 0x5b924d7dd440] using SAR=1/1\n",
      "[libx264 @ 0x5b924d7dd440] using cpu capabilities: MMX2 SSE2Fast SSSE3 SSE4.2 AVX FMA3 BMI2 AVX2\n",
      "[libx264 @ 0x5b924d7dd440] profile High, level 4.2, 4:2:0, 8-bit\n",
      "[libx264 @ 0x5b924d7dd440] 264 - core 163 r3060 5db6aa6 - H.264/MPEG-4 AVC codec - Copyleft 2003-2021 - http://www.videolan.org/x264.html - options: cabac=1 ref=3 deblock=1:0:0 analyse=0x3:0x113 me=hex subme=7 psy=1 psy_rd=1.00:0.00 mixed_ref=1 me_range=16 chroma_me=1 trellis=1 8x8dct=1 cqm=0 deadzone=21,11 fast_pskip=1 chroma_qp_offset=-2 threads=24 lookahead_threads=4 sliced_threads=0 nr=0 decimate=1 interlaced=0 bluray_compat=0 constrained_intra=0 bframes=3 b_pyramid=2 b_adapt=1 b_bias=0 direct=1 weightb=1 open_gop=0 weightp=2 keyint=250 keyint_min=25 scenecut=40 intra_refresh=0 rc_lookahead=40 rc=crf mbtree=1 crf=23.0 qcomp=0.60 qpmin=0 qpmax=69 qpstep=4 ip_ratio=1.40 aq=1:1.00\n",
      "Output #0, mp4, to 'output/dd0a04c2/dd0a04c2_0_1.mp4':\n",
      "  Metadata:\n",
      "    minor_version   : 512\n",
      "    major_brand     : isom\n",
      "    compatible_brands: isomiso6iso2avc1mp41\n",
      "    Hw              : 1\n",
      "    LvMetaInfo      : {\"data\":{\"appVersion\":\"15.4.0\",\"ch1\":\"Direct\",\"ch2\":\"enter_url\",\"editType\":\"edit\",\"exportType\":\"export\",\"original_edittype\":\"edit\",\"os\":\"web\",\"product\":\"vicutweb\",\"videoId\":\"gIG4wJHsAj2HePzP5uJKRDn7ITA7DnrQWJLuImo\"},\"source_type\":\"vicutweb\"}\n",
      "    bitrate         : 0\n",
      "    maxrate         : 0\n",
      "    te_is_reencode  : 1\n",
      "    encoder         : Lavf58.76.100\n",
      "  Stream #0:0(und): Video: h264 (avc1 / 0x31637661), yuv420p(tv, bt709, progressive), 1920x1080 [SAR 1:1 DAR 16:9], q=2-31, 60 fps, 15360 tbn (default)\n",
      "    Metadata:\n",
      "      handler_name    : VideoHandler\n",
      "      vendor_id       : [0][0][0][0]\n",
      "      encoder         : Lavc58.134.100 libx264\n",
      "    Side data:\n",
      "      cpb: bitrate max/min/avg: 0/0/0 buffer size: 0 vbv_delay: N/A\n",
      "  Stream #0:1(und): Audio: aac (LC) (mp4a / 0x6134706D), 44100 Hz, stereo, fltp, 128 kb/s (default)\n",
      "    Metadata:\n",
      "      handler_name    : SoundHandler\n",
      "      vendor_id       : [0][0][0][0]\n",
      "      encoder         : Lavc58.134.100 aac\n",
      "frame=  476 fps=197 q=-1.0 Lsize=     974kB time=00:00:07.89 bitrate=1010.6kbits/s dup=1 drop=0 speed=3.27x    \n",
      "video:958kB audio:2kB subtitle:0kB other streams:0kB global headers:0kB muxing overhead: 1.474179%\n",
      "[libx264 @ 0x5b924d7dd440] frame I:2     Avg QP:20.27  size:149142\n",
      "[libx264 @ 0x5b924d7dd440] frame P:120   Avg QP:21.64  size:  4999\n",
      "[libx264 @ 0x5b924d7dd440] frame B:354   Avg QP:30.71  size:   231\n",
      "[libx264 @ 0x5b924d7dd440] consecutive B-frames:  0.8%  0.0%  0.0% 99.2%\n",
      "[libx264 @ 0x5b924d7dd440] mb I  I16..4: 12.8% 63.8% 23.4%\n",
      "[libx264 @ 0x5b924d7dd440] mb P  I16..4:  0.5%  0.8%  0.1%  P16..4:  6.7%  1.9%  0.9%  0.0%  0.0%    skip:89.1%\n",
      "[libx264 @ 0x5b924d7dd440] mb B  I16..4:  0.0%  0.0%  0.0%  B16..8:  2.9%  0.0%  0.0%  direct: 0.0%  skip:97.1%  L0:26.4% L1:73.5% BI: 0.1%\n",
      "[libx264 @ 0x5b924d7dd440] 8x8 transform intra:61.8% inter:73.2%\n",
      "[libx264 @ 0x5b924d7dd440] coded y,uvDC,uvAC intra: 66.9% 49.8% 13.3% inter: 0.9% 1.0% 0.0%\n",
      "[libx264 @ 0x5b924d7dd440] i16 v,h,dc,p: 42% 34% 10% 14%\n",
      "[libx264 @ 0x5b924d7dd440] i8 v,h,dc,ddl,ddr,vr,hd,vl,hu: 31% 21% 14%  3%  6%  6%  7%  5%  7%\n",
      "[libx264 @ 0x5b924d7dd440] i4 v,h,dc,ddl,ddr,vr,hd,vl,hu: 43% 24%  9%  2%  5%  5%  5%  4%  3%\n",
      "[libx264 @ 0x5b924d7dd440] i8c dc,h,v,p: 48% 24% 22%  6%\n",
      "[libx264 @ 0x5b924d7dd440] Weighted P-Frames: Y:0.0% UV:0.0%\n",
      "[libx264 @ 0x5b924d7dd440] ref P L0: 71.1% 13.4%  8.2%  7.3%\n",
      "[libx264 @ 0x5b924d7dd440] ref B L0: 77.8% 20.9%  1.2%\n",
      "[libx264 @ 0x5b924d7dd440] ref B L1: 93.1%  6.9%\n",
      "[libx264 @ 0x5b924d7dd440] kb/s:988.31\n",
      "[aac @ 0x5b924d808200] Qavg: 65536.000\n",
      "ffmpeg version 4.4.2-0ubuntu0.22.04.1 Copyright (c) 2000-2021 the FFmpeg developers\n",
      "  built with gcc 11 (Ubuntu 11.2.0-19ubuntu1)\n",
      "  configuration: --prefix=/usr --extra-version=0ubuntu0.22.04.1 --toolchain=hardened --libdir=/usr/lib/x86_64-linux-gnu --incdir=/usr/include/x86_64-linux-gnu --arch=amd64 --enable-gpl --disable-stripping --enable-gnutls --enable-ladspa --enable-libaom --enable-libass --enable-libbluray --enable-libbs2b --enable-libcaca --enable-libcdio --enable-libcodec2 --enable-libdav1d --enable-libflite --enable-libfontconfig --enable-libfreetype --enable-libfribidi --enable-libgme --enable-libgsm --enable-libjack --enable-libmp3lame --enable-libmysofa --enable-libopenjpeg --enable-libopenmpt --enable-libopus --enable-libpulse --enable-librabbitmq --enable-librubberband --enable-libshine --enable-libsnappy --enable-libsoxr --enable-libspeex --enable-libsrt --enable-libssh --enable-libtheora --enable-libtwolame --enable-libvidstab --enable-libvorbis --enable-libvpx --enable-libwebp --enable-libx265 --enable-libxml2 --enable-libxvid --enable-libzimg --enable-libzmq --enable-libzvbi --enable-lv2 --enable-omx --enable-openal --enable-opencl --enable-opengl --enable-sdl2 --enable-pocketsphinx --enable-librsvg --enable-libmfx --enable-libdc1394 --enable-libdrm --enable-libiec61883 --enable-chromaprint --enable-frei0r --enable-libx264 --enable-shared\n",
      "  libavutil      56. 70.100 / 56. 70.100\n",
      "  libavcodec     58.134.100 / 58.134.100\n",
      "  libavformat    58. 76.100 / 58. 76.100\n",
      "  libavdevice    58. 13.100 / 58. 13.100\n",
      "  libavfilter     7.110.100 /  7.110.100\n",
      "  libswscale      5.  9.100 /  5.  9.100\n",
      "  libswresample   3.  9.100 /  3.  9.100\n",
      "  libpostproc    55.  9.100 / 55.  9.100\n",
      "Input #0, mov,mp4,m4a,3gp,3g2,mj2, from './manf.mp4':\n",
      "  Metadata:\n",
      "    minor_version   : 512\n",
      "    major_brand     : isom\n",
      "    compatible_brands: isomiso6iso2avc1mp41\n",
      "    Hw              : 1\n",
      "    LvMetaInfo      : {\"data\":{\"appVersion\":\"15.4.0\",\"ch1\":\"Direct\",\"ch2\":\"enter_url\",\"editType\":\"edit\",\"exportType\":\"export\",\"original_edittype\":\"edit\",\"os\":\"web\",\"product\":\"vicutweb\",\"videoId\":\"gIG4wJHsAj2HePzP5uJKRDn7ITA7DnrQWJLuImo\"},\"source_type\":\"vicutweb\"}\n",
      "    bitrate         : 0\n",
      "    maxrate         : 0\n",
      "    te_is_reencode  : 1\n",
      "    encoder         : Lavf58.45.100\n",
      "  Duration: 00:01:31.49, start: 0.000000, bitrate: 6699 kb/s\n",
      "  Stream #0:0(und): Video: h264 (Main) (avc1 / 0x31637661), yuv420p(tv, bt709), 1920x1080 [SAR 1:1 DAR 16:9], 6688 kb/s, 59.97 fps, 60 tbr, 1000k tbn, 120 tbc (default)\n",
      "    Metadata:\n",
      "      handler_name    : VideoHandler\n",
      "      vendor_id       : [0][0][0][0]\n",
      "  Stream #0:1(und): Audio: aac (LC) (mp4a / 0x6134706D), 44100 Hz, stereo, fltp, 2 kb/s (default)\n",
      "    Metadata:\n",
      "      handler_name    : SoundHandler\n",
      "      vendor_id       : [0][0][0][0]\n",
      "Stream mapping:\n",
      "  Stream #0:0 -> #0:0 (h264 (native) -> h264 (libx264))\n",
      "  Stream #0:1 -> #0:1 (aac (native) -> aac (native))\n",
      "Press [q] to stop, [?] for help\n"
     ]
    },
    {
     "name": "stdout",
     "output_type": "stream",
     "text": [
      "Clip saved to output/dd0a04c2/dd0a04c2_0_1.mp4\n"
     ]
    },
    {
     "name": "stderr",
     "output_type": "stream",
     "text": [
      "[libx264 @ 0x5d008c5d4440] using SAR=1/1\n",
      "[libx264 @ 0x5d008c5d4440] using cpu capabilities: MMX2 SSE2Fast SSSE3 SSE4.2 AVX FMA3 BMI2 AVX2\n",
      "[libx264 @ 0x5d008c5d4440] profile High, level 4.2, 4:2:0, 8-bit\n",
      "[libx264 @ 0x5d008c5d4440] 264 - core 163 r3060 5db6aa6 - H.264/MPEG-4 AVC codec - Copyleft 2003-2021 - http://www.videolan.org/x264.html - options: cabac=1 ref=3 deblock=1:0:0 analyse=0x3:0x113 me=hex subme=7 psy=1 psy_rd=1.00:0.00 mixed_ref=1 me_range=16 chroma_me=1 trellis=1 8x8dct=1 cqm=0 deadzone=21,11 fast_pskip=1 chroma_qp_offset=-2 threads=24 lookahead_threads=4 sliced_threads=0 nr=0 decimate=1 interlaced=0 bluray_compat=0 constrained_intra=0 bframes=3 b_pyramid=2 b_adapt=1 b_bias=0 direct=1 weightb=1 open_gop=0 weightp=2 keyint=250 keyint_min=25 scenecut=40 intra_refresh=0 rc_lookahead=40 rc=crf mbtree=1 crf=23.0 qcomp=0.60 qpmin=0 qpmax=69 qpstep=4 ip_ratio=1.40 aq=1:1.00\n",
      "Output #0, mp4, to 'output/dd0a04c2/dd0a04c2_0_2.mp4':\n",
      "  Metadata:\n",
      "    minor_version   : 512\n",
      "    major_brand     : isom\n",
      "    compatible_brands: isomiso6iso2avc1mp41\n",
      "    Hw              : 1\n",
      "    LvMetaInfo      : {\"data\":{\"appVersion\":\"15.4.0\",\"ch1\":\"Direct\",\"ch2\":\"enter_url\",\"editType\":\"edit\",\"exportType\":\"export\",\"original_edittype\":\"edit\",\"os\":\"web\",\"product\":\"vicutweb\",\"videoId\":\"gIG4wJHsAj2HePzP5uJKRDn7ITA7DnrQWJLuImo\"},\"source_type\":\"vicutweb\"}\n",
      "    bitrate         : 0\n",
      "    maxrate         : 0\n",
      "    te_is_reencode  : 1\n",
      "    encoder         : Lavf58.76.100\n",
      "  Stream #0:0(und): Video: h264 (avc1 / 0x31637661), yuv420p(tv, bt709, progressive), 1920x1080 [SAR 1:1 DAR 16:9], q=2-31, 60 fps, 15360 tbn (default)\n",
      "    Metadata:\n",
      "      handler_name    : VideoHandler\n",
      "      vendor_id       : [0][0][0][0]\n",
      "      encoder         : Lavc58.134.100 libx264\n",
      "    Side data:\n",
      "      cpb: bitrate max/min/avg: 0/0/0 buffer size: 0 vbv_delay: N/A\n",
      "  Stream #0:1(und): Audio: aac (LC) (mp4a / 0x6134706D), 44100 Hz, stereo, fltp, 128 kb/s (default)\n",
      "    Metadata:\n",
      "      handler_name    : SoundHandler\n",
      "      vendor_id       : [0][0][0][0]\n",
      "      encoder         : Lavc58.134.100 aac\n",
      "frame=  451 fps=208 q=-1.0 Lsize=     977kB time=00:00:07.47 bitrate=1070.8kbits/s dup=1 drop=0 speed=3.44x    \n",
      "video:962kB audio:2kB subtitle:0kB other streams:0kB global headers:0kB muxing overhead: 1.400403%\n",
      "[libx264 @ 0x5d008c5d4440] frame I:2     Avg QP:19.89  size:153060\n",
      "[libx264 @ 0x5d008c5d4440] frame P:114   Avg QP:22.02  size:  5285\n",
      "[libx264 @ 0x5d008c5d4440] frame B:335   Avg QP:30.58  size:   226\n",
      "[libx264 @ 0x5d008c5d4440] consecutive B-frames:  0.7%  0.9%  0.0% 98.4%\n",
      "[libx264 @ 0x5d008c5d4440] mb I  I16..4: 12.2% 63.4% 24.5%\n",
      "[libx264 @ 0x5d008c5d4440] mb P  I16..4:  0.3%  1.1%  0.2%  P16..4:  6.2%  1.8%  1.0%  0.0%  0.0%    skip:89.4%\n",
      "[libx264 @ 0x5d008c5d4440] mb B  I16..4:  0.0%  0.0%  0.0%  B16..8:  2.8%  0.0%  0.0%  direct: 0.0%  skip:97.2%  L0:68.3% L1:31.4% BI: 0.3%\n",
      "[libx264 @ 0x5d008c5d4440] 8x8 transform intra:66.4% inter:69.1%\n",
      "[libx264 @ 0x5d008c5d4440] coded y,uvDC,uvAC intra: 73.6% 53.4% 14.3% inter: 0.9% 1.1% 0.0%\n",
      "[libx264 @ 0x5d008c5d4440] i16 v,h,dc,p: 45% 26% 11% 18%\n",
      "[libx264 @ 0x5d008c5d4440] i8 v,h,dc,ddl,ddr,vr,hd,vl,hu: 27% 20% 12%  4%  7%  7%  8%  6%  9%\n",
      "[libx264 @ 0x5d008c5d4440] i4 v,h,dc,ddl,ddr,vr,hd,vl,hu: 38% 26%  9%  3%  6%  5%  5%  4%  4%\n",
      "[libx264 @ 0x5d008c5d4440] i8c dc,h,v,p: 49% 22% 22%  8%\n",
      "[libx264 @ 0x5d008c5d4440] Weighted P-Frames: Y:0.9% UV:0.9%\n",
      "[libx264 @ 0x5d008c5d4440] ref P L0: 76.8% 12.0%  9.4%  1.7%  0.1%\n",
      "[libx264 @ 0x5d008c5d4440] ref B L0: 85.9% 13.8%  0.3%\n",
      "[libx264 @ 0x5d008c5d4440] ref B L1: 97.4%  2.6%\n",
      "[libx264 @ 0x5d008c5d4440] kb/s:1047.55\n",
      "[aac @ 0x5d008c5ff200] Qavg: 65536.000\n",
      "ffmpeg version 4.4.2-0ubuntu0.22.04.1 Copyright (c) 2000-2021 the FFmpeg developers\n",
      "  built with gcc 11 (Ubuntu 11.2.0-19ubuntu1)\n",
      "  configuration: --prefix=/usr --extra-version=0ubuntu0.22.04.1 --toolchain=hardened --libdir=/usr/lib/x86_64-linux-gnu --incdir=/usr/include/x86_64-linux-gnu --arch=amd64 --enable-gpl --disable-stripping --enable-gnutls --enable-ladspa --enable-libaom --enable-libass --enable-libbluray --enable-libbs2b --enable-libcaca --enable-libcdio --enable-libcodec2 --enable-libdav1d --enable-libflite --enable-libfontconfig --enable-libfreetype --enable-libfribidi --enable-libgme --enable-libgsm --enable-libjack --enable-libmp3lame --enable-libmysofa --enable-libopenjpeg --enable-libopenmpt --enable-libopus --enable-libpulse --enable-librabbitmq --enable-librubberband --enable-libshine --enable-libsnappy --enable-libsoxr --enable-libspeex --enable-libsrt --enable-libssh --enable-libtheora --enable-libtwolame --enable-libvidstab --enable-libvorbis --enable-libvpx --enable-libwebp --enable-libx265 --enable-libxml2 --enable-libxvid --enable-libzimg --enable-libzmq --enable-libzvbi --enable-lv2 --enable-omx --enable-openal --enable-opencl --enable-opengl --enable-sdl2 --enable-pocketsphinx --enable-librsvg --enable-libmfx --enable-libdc1394 --enable-libdrm --enable-libiec61883 --enable-chromaprint --enable-frei0r --enable-libx264 --enable-shared\n",
      "  libavutil      56. 70.100 / 56. 70.100\n",
      "  libavcodec     58.134.100 / 58.134.100\n",
      "  libavformat    58. 76.100 / 58. 76.100\n",
      "  libavdevice    58. 13.100 / 58. 13.100\n",
      "  libavfilter     7.110.100 /  7.110.100\n",
      "  libswscale      5.  9.100 /  5.  9.100\n",
      "  libswresample   3.  9.100 /  3.  9.100\n",
      "  libpostproc    55.  9.100 / 55.  9.100\n",
      "Input #0, mov,mp4,m4a,3gp,3g2,mj2, from './manf.mp4':\n",
      "  Metadata:\n",
      "    minor_version   : 512\n",
      "    major_brand     : isom\n",
      "    compatible_brands: isomiso6iso2avc1mp41\n",
      "    Hw              : 1\n",
      "    LvMetaInfo      : {\"data\":{\"appVersion\":\"15.4.0\",\"ch1\":\"Direct\",\"ch2\":\"enter_url\",\"editType\":\"edit\",\"exportType\":\"export\",\"original_edittype\":\"edit\",\"os\":\"web\",\"product\":\"vicutweb\",\"videoId\":\"gIG4wJHsAj2HePzP5uJKRDn7ITA7DnrQWJLuImo\"},\"source_type\":\"vicutweb\"}\n",
      "    bitrate         : 0\n",
      "    maxrate         : 0\n",
      "    te_is_reencode  : 1\n",
      "    encoder         : Lavf58.45.100\n",
      "  Duration: 00:01:31.49, start: 0.000000, bitrate: 6699 kb/s\n",
      "  Stream #0:0(und): Video: h264 (Main) (avc1 / 0x31637661), yuv420p(tv, bt709), 1920x1080 [SAR 1:1 DAR 16:9], 6688 kb/s, 59.97 fps, 60 tbr, 1000k tbn, 120 tbc (default)\n",
      "    Metadata:\n",
      "      handler_name    : VideoHandler\n",
      "      vendor_id       : [0][0][0][0]\n",
      "  Stream #0:1(und): Audio: aac (LC) (mp4a / 0x6134706D), 44100 Hz, stereo, fltp, 2 kb/s (default)\n",
      "    Metadata:\n",
      "      handler_name    : SoundHandler\n",
      "      vendor_id       : [0][0][0][0]\n",
      "Stream mapping:\n",
      "  Stream #0:0 -> #0:0 (h264 (native) -> h264 (libx264))\n",
      "  Stream #0:1 -> #0:1 (aac (native) -> aac (native))\n",
      "Press [q] to stop, [?] for help\n"
     ]
    },
    {
     "name": "stdout",
     "output_type": "stream",
     "text": [
      "Clip saved to output/dd0a04c2/dd0a04c2_0_2.mp4\n"
     ]
    },
    {
     "name": "stderr",
     "output_type": "stream",
     "text": [
      "[libx264 @ 0x63db98ed8440] using SAR=1/1\n",
      "[libx264 @ 0x63db98ed8440] using cpu capabilities: MMX2 SSE2Fast SSSE3 SSE4.2 AVX FMA3 BMI2 AVX2\n",
      "[libx264 @ 0x63db98ed8440] profile High, level 4.2, 4:2:0, 8-bit\n",
      "[libx264 @ 0x63db98ed8440] 264 - core 163 r3060 5db6aa6 - H.264/MPEG-4 AVC codec - Copyleft 2003-2021 - http://www.videolan.org/x264.html - options: cabac=1 ref=3 deblock=1:0:0 analyse=0x3:0x113 me=hex subme=7 psy=1 psy_rd=1.00:0.00 mixed_ref=1 me_range=16 chroma_me=1 trellis=1 8x8dct=1 cqm=0 deadzone=21,11 fast_pskip=1 chroma_qp_offset=-2 threads=24 lookahead_threads=4 sliced_threads=0 nr=0 decimate=1 interlaced=0 bluray_compat=0 constrained_intra=0 bframes=3 b_pyramid=2 b_adapt=1 b_bias=0 direct=1 weightb=1 open_gop=0 weightp=2 keyint=250 keyint_min=25 scenecut=40 intra_refresh=0 rc_lookahead=40 rc=crf mbtree=1 crf=23.0 qcomp=0.60 qpmin=0 qpmax=69 qpstep=4 ip_ratio=1.40 aq=1:1.00\n",
      "Output #0, mp4, to 'output/dd0a04c2/dd0a04c2_0_3.mp4':\n",
      "  Metadata:\n",
      "    minor_version   : 512\n",
      "    major_brand     : isom\n",
      "    compatible_brands: isomiso6iso2avc1mp41\n",
      "    Hw              : 1\n",
      "    LvMetaInfo      : {\"data\":{\"appVersion\":\"15.4.0\",\"ch1\":\"Direct\",\"ch2\":\"enter_url\",\"editType\":\"edit\",\"exportType\":\"export\",\"original_edittype\":\"edit\",\"os\":\"web\",\"product\":\"vicutweb\",\"videoId\":\"gIG4wJHsAj2HePzP5uJKRDn7ITA7DnrQWJLuImo\"},\"source_type\":\"vicutweb\"}\n",
      "    bitrate         : 0\n",
      "    maxrate         : 0\n",
      "    te_is_reencode  : 1\n",
      "    encoder         : Lavf58.76.100\n",
      "  Stream #0:0(und): Video: h264 (avc1 / 0x31637661), yuv420p(tv, bt709, progressive), 1920x1080 [SAR 1:1 DAR 16:9], q=2-31, 60 fps, 15360 tbn (default)\n",
      "    Metadata:\n",
      "      handler_name    : VideoHandler\n",
      "      vendor_id       : [0][0][0][0]\n",
      "      encoder         : Lavc58.134.100 libx264\n",
      "    Side data:\n",
      "      cpb: bitrate max/min/avg: 0/0/0 buffer size: 0 vbv_delay: N/A\n",
      "  Stream #0:1(und): Audio: aac (LC) (mp4a / 0x6134706D), 44100 Hz, stereo, fltp, 128 kb/s (default)\n",
      "    Metadata:\n",
      "      handler_name    : SoundHandler\n",
      "      vendor_id       : [0][0][0][0]\n",
      "      encoder         : Lavc58.134.100 aac\n",
      "frame=  476 fps=216 q=-1.0 Lsize=     843kB time=00:00:07.89 bitrate= 874.7kbits/s dup=1 drop=0 speed=3.59x    \n",
      "video:827kB audio:2kB subtitle:0kB other streams:0kB global headers:0kB muxing overhead: 1.709090%\n",
      "[libx264 @ 0x63db98ed8440] frame I:2     Avg QP:19.63  size:155574\n",
      "[libx264 @ 0x63db98ed8440] frame P:120   Avg QP:21.50  size:  3886\n",
      "[libx264 @ 0x63db98ed8440] frame B:354   Avg QP:30.66  size:   193\n",
      "[libx264 @ 0x63db98ed8440] consecutive B-frames:  0.8%  0.0%  0.0% 99.2%\n",
      "[libx264 @ 0x63db98ed8440] mb I  I16..4: 11.6% 63.5% 24.9%\n",
      "[libx264 @ 0x63db98ed8440] mb P  I16..4:  0.5%  1.0%  0.2%  P16..4:  5.0%  1.1%  0.6%  0.0%  0.0%    skip:91.6%\n",
      "[libx264 @ 0x63db98ed8440] mb B  I16..4:  0.0%  0.0%  0.0%  B16..8:  2.2%  0.0%  0.0%  direct: 0.0%  skip:97.8%  L0:53.1% L1:46.8% BI: 0.2%\n",
      "[libx264 @ 0x63db98ed8440] 8x8 transform intra:61.5% inter:70.1%\n",
      "[libx264 @ 0x63db98ed8440] coded y,uvDC,uvAC intra: 68.1% 52.5% 14.5% inter: 0.6% 1.0% 0.0%\n",
      "[libx264 @ 0x63db98ed8440] i16 v,h,dc,p: 33% 42%  9% 16%\n",
      "[libx264 @ 0x63db98ed8440] i8 v,h,dc,ddl,ddr,vr,hd,vl,hu: 27% 23% 13%  3%  7%  6%  7%  5%  8%\n",
      "[libx264 @ 0x63db98ed8440] i4 v,h,dc,ddl,ddr,vr,hd,vl,hu: 39% 26%  9%  2%  6%  5%  5%  4%  4%\n",
      "[libx264 @ 0x63db98ed8440] i8c dc,h,v,p: 48% 25% 20%  7%\n",
      "[libx264 @ 0x63db98ed8440] Weighted P-Frames: Y:0.0% UV:0.0%\n",
      "[libx264 @ 0x63db98ed8440] ref P L0: 79.4% 11.8%  6.6%  2.2%\n",
      "[libx264 @ 0x63db98ed8440] ref B L0: 80.8% 18.9%  0.4%\n",
      "[libx264 @ 0x63db98ed8440] ref B L1: 97.6%  2.4%\n",
      "[libx264 @ 0x63db98ed8440] kb/s:853.03\n",
      "[aac @ 0x63db98f03200] Qavg: 65536.000\n",
      "ffmpeg version 4.4.2-0ubuntu0.22.04.1 Copyright (c) 2000-2021 the FFmpeg developers\n",
      "  built with gcc 11 (Ubuntu 11.2.0-19ubuntu1)\n",
      "  configuration: --prefix=/usr --extra-version=0ubuntu0.22.04.1 --toolchain=hardened --libdir=/usr/lib/x86_64-linux-gnu --incdir=/usr/include/x86_64-linux-gnu --arch=amd64 --enable-gpl --disable-stripping --enable-gnutls --enable-ladspa --enable-libaom --enable-libass --enable-libbluray --enable-libbs2b --enable-libcaca --enable-libcdio --enable-libcodec2 --enable-libdav1d --enable-libflite --enable-libfontconfig --enable-libfreetype --enable-libfribidi --enable-libgme --enable-libgsm --enable-libjack --enable-libmp3lame --enable-libmysofa --enable-libopenjpeg --enable-libopenmpt --enable-libopus --enable-libpulse --enable-librabbitmq --enable-librubberband --enable-libshine --enable-libsnappy --enable-libsoxr --enable-libspeex --enable-libsrt --enable-libssh --enable-libtheora --enable-libtwolame --enable-libvidstab --enable-libvorbis --enable-libvpx --enable-libwebp --enable-libx265 --enable-libxml2 --enable-libxvid --enable-libzimg --enable-libzmq --enable-libzvbi --enable-lv2 --enable-omx --enable-openal --enable-opencl --enable-opengl --enable-sdl2 --enable-pocketsphinx --enable-librsvg --enable-libmfx --enable-libdc1394 --enable-libdrm --enable-libiec61883 --enable-chromaprint --enable-frei0r --enable-libx264 --enable-shared\n",
      "  libavutil      56. 70.100 / 56. 70.100\n",
      "  libavcodec     58.134.100 / 58.134.100\n",
      "  libavformat    58. 76.100 / 58. 76.100\n",
      "  libavdevice    58. 13.100 / 58. 13.100\n",
      "  libavfilter     7.110.100 /  7.110.100\n",
      "  libswscale      5.  9.100 /  5.  9.100\n",
      "  libswresample   3.  9.100 /  3.  9.100\n",
      "  libpostproc    55.  9.100 / 55.  9.100\n",
      "Input #0, mov,mp4,m4a,3gp,3g2,mj2, from './manf.mp4':\n",
      "  Metadata:\n",
      "    minor_version   : 512\n",
      "    major_brand     : isom\n",
      "    compatible_brands: isomiso6iso2avc1mp41\n",
      "    Hw              : 1\n",
      "    LvMetaInfo      : {\"data\":{\"appVersion\":\"15.4.0\",\"ch1\":\"Direct\",\"ch2\":\"enter_url\",\"editType\":\"edit\",\"exportType\":\"export\",\"original_edittype\":\"edit\",\"os\":\"web\",\"product\":\"vicutweb\",\"videoId\":\"gIG4wJHsAj2HePzP5uJKRDn7ITA7DnrQWJLuImo\"},\"source_type\":\"vicutweb\"}\n",
      "    bitrate         : 0\n",
      "    maxrate         : 0\n",
      "    te_is_reencode  : 1\n",
      "    encoder         : Lavf58.45.100\n",
      "  Duration: 00:01:31.49, start: 0.000000, bitrate: 6699 kb/s\n",
      "  Stream #0:0(und): Video: h264 (Main) (avc1 / 0x31637661), yuv420p(tv, bt709), 1920x1080 [SAR 1:1 DAR 16:9], 6688 kb/s, 59.97 fps, 60 tbr, 1000k tbn, 120 tbc (default)\n",
      "    Metadata:\n",
      "      handler_name    : VideoHandler\n",
      "      vendor_id       : [0][0][0][0]\n",
      "  Stream #0:1(und): Audio: aac (LC) (mp4a / 0x6134706D), 44100 Hz, stereo, fltp, 2 kb/s (default)\n",
      "    Metadata:\n",
      "      handler_name    : SoundHandler\n",
      "      vendor_id       : [0][0][0][0]\n",
      "Stream mapping:\n",
      "  Stream #0:0 -> #0:0 (h264 (native) -> h264 (libx264))\n",
      "  Stream #0:1 -> #0:1 (aac (native) -> aac (native))\n",
      "Press [q] to stop, [?] for help\n"
     ]
    },
    {
     "name": "stdout",
     "output_type": "stream",
     "text": [
      "Clip saved to output/dd0a04c2/dd0a04c2_0_3.mp4\n"
     ]
    },
    {
     "name": "stderr",
     "output_type": "stream",
     "text": [
      "[libx264 @ 0x5b7b2312c440] using SAR=1/1\n",
      "[libx264 @ 0x5b7b2312c440] using cpu capabilities: MMX2 SSE2Fast SSSE3 SSE4.2 AVX FMA3 BMI2 AVX2\n",
      "[libx264 @ 0x5b7b2312c440] profile High, level 4.2, 4:2:0, 8-bit\n",
      "[libx264 @ 0x5b7b2312c440] 264 - core 163 r3060 5db6aa6 - H.264/MPEG-4 AVC codec - Copyleft 2003-2021 - http://www.videolan.org/x264.html - options: cabac=1 ref=3 deblock=1:0:0 analyse=0x3:0x113 me=hex subme=7 psy=1 psy_rd=1.00:0.00 mixed_ref=1 me_range=16 chroma_me=1 trellis=1 8x8dct=1 cqm=0 deadzone=21,11 fast_pskip=1 chroma_qp_offset=-2 threads=24 lookahead_threads=4 sliced_threads=0 nr=0 decimate=1 interlaced=0 bluray_compat=0 constrained_intra=0 bframes=3 b_pyramid=2 b_adapt=1 b_bias=0 direct=1 weightb=1 open_gop=0 weightp=2 keyint=250 keyint_min=25 scenecut=40 intra_refresh=0 rc_lookahead=40 rc=crf mbtree=1 crf=23.0 qcomp=0.60 qpmin=0 qpmax=69 qpstep=4 ip_ratio=1.40 aq=1:1.00\n",
      "Output #0, mp4, to 'output/dd0a04c2/dd0a04c2_0_4.mp4':\n",
      "  Metadata:\n",
      "    minor_version   : 512\n",
      "    major_brand     : isom\n",
      "    compatible_brands: isomiso6iso2avc1mp41\n",
      "    Hw              : 1\n",
      "    LvMetaInfo      : {\"data\":{\"appVersion\":\"15.4.0\",\"ch1\":\"Direct\",\"ch2\":\"enter_url\",\"editType\":\"edit\",\"exportType\":\"export\",\"original_edittype\":\"edit\",\"os\":\"web\",\"product\":\"vicutweb\",\"videoId\":\"gIG4wJHsAj2HePzP5uJKRDn7ITA7DnrQWJLuImo\"},\"source_type\":\"vicutweb\"}\n",
      "    bitrate         : 0\n",
      "    maxrate         : 0\n",
      "    te_is_reencode  : 1\n",
      "    encoder         : Lavf58.76.100\n",
      "  Stream #0:0(und): Video: h264 (avc1 / 0x31637661), yuv420p(tv, bt709, progressive), 1920x1080 [SAR 1:1 DAR 16:9], q=2-31, 60 fps, 15360 tbn (default)\n",
      "    Metadata:\n",
      "      handler_name    : VideoHandler\n",
      "      vendor_id       : [0][0][0][0]\n",
      "      encoder         : Lavc58.134.100 libx264\n",
      "    Side data:\n",
      "      cpb: bitrate max/min/avg: 0/0/0 buffer size: 0 vbv_delay: N/A\n",
      "  Stream #0:1(und): Audio: aac (LC) (mp4a / 0x6134706D), 44100 Hz, stereo, fltp, 128 kb/s (default)\n",
      "    Metadata:\n",
      "      handler_name    : SoundHandler\n",
      "      vendor_id       : [0][0][0][0]\n",
      "      encoder         : Lavc58.134.100 aac\n",
      "frame= 3537 fps=216 q=31.0 size=    5120kB time=00:00:59.14 bitrate= 709.2kbits/s dup=3 drop=0 speed=3.61x    \r"
     ]
    },
    {
     "name": "stdout",
     "output_type": "stream",
     "text": [
      "Clip saved to output/dd0a04c2/dd0a04c2_0_4.mp4\n"
     ]
    },
    {
     "name": "stderr",
     "output_type": "stream",
     "text": [
      "frame= 3585 fps=214 q=-1.0 Lsize=    5480kB time=00:00:59.72 bitrate= 751.8kbits/s dup=3 drop=0 speed=3.57x    \n",
      "video:5368kB audio:15kB subtitle:0kB other streams:0kB global headers:0kB muxing overhead: 1.808036%\n",
      "[libx264 @ 0x5b7b2312c440] frame I:15    Avg QP:18.50  size:150989\n",
      "[libx264 @ 0x5b7b2312c440] frame P:903   Avg QP:20.11  size:  3022\n",
      "[libx264 @ 0x5b7b2312c440] frame B:2667  Avg QP:19.62  size:   188\n",
      "[libx264 @ 0x5b7b2312c440] consecutive B-frames:  0.8%  0.1%  0.2% 99.0%\n",
      "[libx264 @ 0x5b7b2312c440] mb I  I16..4: 12.2% 66.2% 21.6%\n",
      "[libx264 @ 0x5b7b2312c440] mb P  I16..4:  0.8%  1.0%  0.1%  P16..4:  5.0%  1.0%  0.5%  0.0%  0.0%    skip:91.6%\n",
      "[libx264 @ 0x5b7b2312c440] mb B  I16..4:  0.0%  0.0%  0.0%  B16..8:  2.0%  0.0%  0.0%  direct: 0.0%  skip:97.9%  L0:36.4% L1:63.5% BI: 0.2%\n",
      "[libx264 @ 0x5b7b2312c440] 8x8 transform intra:57.0% inter:78.6%\n",
      "[libx264 @ 0x5b7b2312c440] coded y,uvDC,uvAC intra: 56.8% 44.8% 14.5% inter: 0.5% 0.9% 0.0%\n",
      "[libx264 @ 0x5b7b2312c440] i16 v,h,dc,p: 24% 56%  7% 13%\n",
      "[libx264 @ 0x5b7b2312c440] i8 v,h,dc,ddl,ddr,vr,hd,vl,hu: 26% 30% 16%  2%  5%  4%  6%  4%  7%\n",
      "[libx264 @ 0x5b7b2312c440] i4 v,h,dc,ddl,ddr,vr,hd,vl,hu: 38% 30%  9%  2%  5%  4%  5%  3%  3%\n",
      "[libx264 @ 0x5b7b2312c440] i8c dc,h,v,p: 48% 31% 16%  6%\n",
      "[libx264 @ 0x5b7b2312c440] Weighted P-Frames: Y:0.0% UV:0.0%\n",
      "[libx264 @ 0x5b7b2312c440] ref P L0: 85.8%  7.2%  5.9%  1.2%\n",
      "[libx264 @ 0x5b7b2312c440] ref B L0: 68.6% 30.7%  0.7%\n",
      "[libx264 @ 0x5b7b2312c440] ref B L1: 97.0%  3.0%\n",
      "[libx264 @ 0x5b7b2312c440] kb/s:735.87\n",
      "[aac @ 0x5b7b23157200] Qavg: 65536.000\n"
     ]
    },
    {
     "data": {
      "text/plain": [
       "'dd0a04c2'"
      ]
     },
     "execution_count": 14,
     "metadata": {},
     "output_type": "execute_result"
    }
   ],
   "source": [
    "generate_data(API_KEY = API_KEY, INDEX_NAME = \"security1\", VIDEO_PATH = \"./manf.mp4\", QUERY_TEXT = QUERY_TEXT, DELETE = 1, VIDEO_UPLOAD = , TOPK = 5)"
   ]
  },
  {
   "cell_type": "code",
   "execution_count": 10,
   "id": "a7027d0c-68aa-452c-86a8-12f60549d640",
   "metadata": {},
   "outputs": [],
   "source": [
    "import pandas as pd\n",
    "df = pd.read_csv(\"output/325f99ab/search_results.csv\")"
   ]
  },
  {
   "cell_type": "code",
   "execution_count": 11,
   "id": "4d3d4e5f-fa1e-457c-bcf2-07d614d902ab",
   "metadata": {},
   "outputs": [
    {
     "data": {
      "text/html": [
       "<div>\n",
       "<style scoped>\n",
       "    .dataframe tbody tr th:only-of-type {\n",
       "        vertical-align: middle;\n",
       "    }\n",
       "\n",
       "    .dataframe tbody tr th {\n",
       "        vertical-align: top;\n",
       "    }\n",
       "\n",
       "    .dataframe thead th {\n",
       "        text-align: right;\n",
       "    }\n",
       "</style>\n",
       "<table border=\"1\" class=\"dataframe\">\n",
       "  <thead>\n",
       "    <tr style=\"text-align: right;\">\n",
       "      <th></th>\n",
       "      <th>index_clip</th>\n",
       "      <th>video_id</th>\n",
       "      <th>score</th>\n",
       "      <th>start</th>\n",
       "      <th>end</th>\n",
       "      <th>confidence</th>\n",
       "      <th>thumbnail_url</th>\n",
       "    </tr>\n",
       "  </thead>\n",
       "  <tbody>\n",
       "    <tr>\n",
       "      <th>0</th>\n",
       "      <td>325f99ab_0_0</td>\n",
       "      <td>679513d4f21362a14566e29d</td>\n",
       "      <td>84.43</td>\n",
       "      <td>59.766666</td>\n",
       "      <td>67.682443</td>\n",
       "      <td>high</td>\n",
       "      <td>https://project-one-thumbnail.s3.us-west-2.ama...</td>\n",
       "    </tr>\n",
       "    <tr>\n",
       "      <th>1</th>\n",
       "      <td>325f99ab_0_1</td>\n",
       "      <td>679513d4f21362a14566e29d</td>\n",
       "      <td>84.37</td>\n",
       "      <td>75.598220</td>\n",
       "      <td>83.513996</td>\n",
       "      <td>high</td>\n",
       "      <td>https://project-one-thumbnail.s3.us-west-2.ama...</td>\n",
       "    </tr>\n",
       "    <tr>\n",
       "      <th>2</th>\n",
       "      <td>325f99ab_0_2</td>\n",
       "      <td>679513d4f21362a14566e29d</td>\n",
       "      <td>83.96</td>\n",
       "      <td>83.513996</td>\n",
       "      <td>91.000000</td>\n",
       "      <td>high</td>\n",
       "      <td>https://project-one-thumbnail.s3.us-west-2.ama...</td>\n",
       "    </tr>\n",
       "    <tr>\n",
       "      <th>3</th>\n",
       "      <td>325f99ab_0_3</td>\n",
       "      <td>679513d4f21362a14566e29d</td>\n",
       "      <td>83.93</td>\n",
       "      <td>67.682443</td>\n",
       "      <td>75.598220</td>\n",
       "      <td>high</td>\n",
       "      <td>https://project-one-thumbnail.s3.us-west-2.ama...</td>\n",
       "    </tr>\n",
       "    <tr>\n",
       "      <th>4</th>\n",
       "      <td>325f99ab_0_4</td>\n",
       "      <td>679513d4f21362a14566e29d</td>\n",
       "      <td>83.50</td>\n",
       "      <td>0.000000</td>\n",
       "      <td>59.733333</td>\n",
       "      <td>high</td>\n",
       "      <td>https://project-one-thumbnail.s3.us-west-2.ama...</td>\n",
       "    </tr>\n",
       "  </tbody>\n",
       "</table>\n",
       "</div>"
      ],
      "text/plain": [
       "     index_clip                  video_id  score      start        end  \\\n",
       "0  325f99ab_0_0  679513d4f21362a14566e29d  84.43  59.766666  67.682443   \n",
       "1  325f99ab_0_1  679513d4f21362a14566e29d  84.37  75.598220  83.513996   \n",
       "2  325f99ab_0_2  679513d4f21362a14566e29d  83.96  83.513996  91.000000   \n",
       "3  325f99ab_0_3  679513d4f21362a14566e29d  83.93  67.682443  75.598220   \n",
       "4  325f99ab_0_4  679513d4f21362a14566e29d  83.50   0.000000  59.733333   \n",
       "\n",
       "  confidence                                      thumbnail_url  \n",
       "0       high  https://project-one-thumbnail.s3.us-west-2.ama...  \n",
       "1       high  https://project-one-thumbnail.s3.us-west-2.ama...  \n",
       "2       high  https://project-one-thumbnail.s3.us-west-2.ama...  \n",
       "3       high  https://project-one-thumbnail.s3.us-west-2.ama...  \n",
       "4       high  https://project-one-thumbnail.s3.us-west-2.ama...  "
      ]
     },
     "execution_count": 11,
     "metadata": {},
     "output_type": "execute_result"
    }
   ],
   "source": [
    "df"
   ]
  },
  {
   "cell_type": "code",
   "execution_count": null,
   "id": "12414726-481f-4ff4-8ae1-b3b6a755ed7a",
   "metadata": {},
   "outputs": [],
   "source": []
  }
 ],
 "metadata": {
  "kernelspec": {
   "display_name": "Python 3 (ipykernel)",
   "language": "python",
   "name": "python3"
  },
  "language_info": {
   "codemirror_mode": {
    "name": "ipython",
    "version": 3
   },
   "file_extension": ".py",
   "mimetype": "text/x-python",
   "name": "python",
   "nbconvert_exporter": "python",
   "pygments_lexer": "ipython3",
   "version": "3.12.4"
  }
 },
 "nbformat": 4,
 "nbformat_minor": 5
}
